<svg width="25" height="24" viewBox="0 0 25 24" fill="none" xmlns="http://www.w3.org/2000/svg"><g clip-path="url(#clip0_18182_20225)" fill="#fff"><mask id="a"><path fill-rule="evenodd" clip-rule="evenodd" d="M18.362 4.26c.165-.538.207-1.19-.19-1.588l-1.55-1.55a3 3 0 00-4.243 0L1.727 11.772a3 3 0 000 4.243l1.317 1.317c.405.406 1.076.354 1.622.178a2 2 0 012.518 2.518c-.176.546-.228 1.216.178 1.622l1.436 1.436a3 3 0 004.242 0l10.652-10.652a3 3 0 000-4.243L22.45 6.95c-.397-.397-1.05-.355-1.588-.19a2 2 0 01-2.5-2.5z"/></mask><path d="M1.727 16.016l1.414-1.414-1.414 1.414zm3.553 1.398v2-2zm2 2h-2 2zm1.518 3.673l1.414-1.414-1.414 1.414zm4.242 0l1.415 1.414-1.415-1.414zm10.652-10.652l-1.414-1.414 1.414 1.414zm0-4.243l-1.414 1.415 1.414-1.415zm-3.418-1.344v2-2zm-2-2h2-2zM7.184 20.029l1.903.614-1.903-.614zm.178 1.622l-1.415 1.414 1.415-1.414zm-4.318-4.318l-1.415 1.414 1.415-1.414zm1.622.178l.614 1.903-.614-1.903zm14.92-16.254l-1.55-1.55-2.829 2.829 1.55 1.55 2.829-2.829zm-1.55-1.55a5 5 0 00-7.072 0l2.829 2.829a1 1 0 011.414 0l2.828-2.829zm-7.072 0L.313 10.36l2.829 2.829L13.793 2.536 10.964-.293zM.313 10.36a5 5 0 000 7.071l2.829-2.828a1 1 0 010-1.414l-2.83-2.83zm0 7.071l1.317 1.317 2.829-2.828-1.317-1.317-2.83 2.827zm4.968 1.984v-4c-.425 0-.839.067-1.229.193l1.229 3.807zm0 0h4a4 4 0 00-4-4v4zm0 0l3.807 1.23c.126-.39.193-.804.193-1.23h-4zm.667 3.651l1.436 1.436 2.829-2.828-1.436-1.436-2.829 2.828zm1.436 1.436a5 5 0 007.071 0l-2.828-2.828a1 1 0 01-1.414 0L7.383 24.5zm7.071 0L25.108 13.85l-2.829-2.828-10.652 10.652 2.829 2.828zM25.108 13.85a5 5 0 000-7.07l-2.829 2.828a1 1 0 010 1.414l2.829 2.828zm0-7.07l-1.242-1.243-2.829 2.829 1.242 1.242 2.829-2.829zm-4.832-1.93l-.001-.001v4a4 4 0 001.176-.176l-1.175-3.824zm-.001-.001h-4a4 4 0 004 4v-4zm0 0L16.45 3.671a4 4 0 00-.176 1.176h4zm3.59.688c-.636-.637-1.413-.847-2.023-.887a4.4 4.4 0 00-1.566.2l1.175 3.823a.848.848 0 01.121-.029c.03-.004.032-.002.006-.003a.901.901 0 01-.54-.275l2.828-2.829zM5.282 19.415a4.438 4.438 0 00-.223 1.587c.033.618.24 1.413.89 2.063l2.828-2.828a.898.898 0 01.276.546c0 .024-.002.021.003-.012a.885.885 0 01.032-.128l-3.806-1.228zm-3.652-.668c.65.65 1.446.856 2.064.89a4.437 4.437 0 001.587-.223L4.05 15.607a.883.883 0 01-.128.032c-.033.006-.036.003-.012.004a.898.898 0 01.547.276l-2.829 2.828zM16.757 4.086a.9.9 0 01-.275-.54c-.002-.027.001-.026-.003.005a.833.833 0 01-.029.121l3.824 1.175a4.43 4.43 0 00.2-1.566c-.04-.61-.251-1.387-.888-2.024l-2.829 2.829z" mask="url(#a)"/><rect x="9.551" y="3.95" width="4" height="2" rx="1" transform="rotate(45 9.55 3.95)"/><rect x="18.035" y="12.435" width="4" height="2" rx="1" transform="rotate(45 18.035 12.435)"/><rect x="13.793" y="8.192" width="4" height="2" rx="1" transform="rotate(45 13.793 8.192)"/></g><defs><clipPath id="clip0_18182_20225"><path fill="#fff" transform="translate(.5)" d="M0 0h24v24H0z"/></clipPath></defs></svg>