<svg width="25" height="30" viewBox="0 0 25 30" fill="none" xmlns="http://www.w3.org/2000/svg"><path d="M20.82 28.278c-1.608 1.504-3.382 1.27-5.073.56-1.797-.723-3.44-.769-5.34 0-2.364.984-3.619.698-5.042-.56-8.04-7.977-6.853-20.13 2.284-20.587 2.216.114 3.767 1.18 5.073 1.27 1.94-.38 3.797-1.47 5.873-1.327 2.495.194 4.361 1.143 5.607 2.85-5.132 2.974-3.916 9.493.798 11.323-.943 2.388-2.154 4.747-4.183 6.491l.003-.02zM12.543 7.605c-.24-3.545 2.742-6.462 6.17-6.748.473 4.089-3.856 7.148-6.17 6.748z" fill="#28D"/></svg>