<svg width="24" height="26" viewBox="0 0 24 26" fill="none" xmlns="http://www.w3.org/2000/svg"><path fill-rule="evenodd" clip-rule="evenodd" d="M14.252 15.605v-.02h.02v.02h-.02zm-.06-.508h.02v.02h-.02v-.02zm0 0h-.02v-.02h.02v.02zm-.02-.02h-.02v-.02h.02v.02zm-.02-.02h-.021v-.021h.02v.02zm-7.121-1.91h.02v.02h-.02v-.02zm.485-.061v.02h-.02v-.02h.02zm.02-.02v.02h-.02v-.02h.02zm.02-.021v.02h-.02v-.02h.02zm.02-.02v.02h-.02v-.02h.02zm8.578-4.551v.02h-.02v-.02h.02zm.02-.02v.02h-.02v-.02h.02zm.02-.02v.02h-.02v-.02h.02zm0 0v-.021h.02v.02h-.02zm.465-.082h-.02v-.02h.02v.02zm-.526.142v.02h-.02v.02h-.02v.02h-.02v.021h-.02v.02h-.02v.02h-.02v.021h-.021v.02h-.02v.02h-.02v.021h-.021v.02h-.02v.02h-.02v.021h-.02v.02h-.02v.02h-.021v.021h-.02v.02h-.02v.02h-.02v.021h-.021v.02h-.02v.02h-.02v.021h-.02v.02h-.02v.02h-.021v.02h-.02v.021h-.02v.02h-.021v.02h-.02v.021h-.02v.02h-.02v.02h-.02v.021h-.021v.02h-.02v.02h-.02v.021h-.02v.02h-.02v.02h-.021v.021h-.02v.02h-.02v.02h-.02v.021h-.021v.02h-.02v.02h-.02v.021h-.02v.02h-.02v.02h-.021v.02h-.02v.021h-.02v.02h-.021v.02h-.02v.021h-.02v.02h-.02v.02h-.02v.021h-.021v.02h-.02v.02h-.02v.021h-.02v.02h-.02v.02h-.021v.021h-.02v.02h-.02v.02h-.02v.02h-.02v.021h-.021v.02h-.02v.02h-.02v.021h-.02v.02h-.021v.02h-.02v.021h-.02v.02h-.02v.02h-.021v.021h-.02v.02h-.02v.02h-.02v.021h-.021v.02h-.02v.02h-.02v.021h-.02v.02h-.02v.02h-.021v.021h-.02v.02h-.02v.02h-.02v.02h-.02v.021h-.021v.02h-.02v.02h-.02v.021h-.021v.02h-.02v.02h-.02v.021h-.02v.02h-.02v.02h-.021v.021h-.02v.02h-.02v.02h-.02v.021h-.02v.02h-.021v.02h-.02v.021h-.02v.02h-.02v.02h-.021v.02h-.02v.021h-.02v.02h-.021v.041h-.02v.061h-.02v.04h.02v.062h.02v.02h.02v.02h.02v.02h.02v.021h.021v.02h.02v.02h.02v.02h.02v.021h.021v.02h.02v.02h.02v.021h.02v.02h.02v.02h.021v.021h.02v.02h.02v.02h.021v.021h.02v.02h.02v.02h.02v.021h.02v.02h.021v.02h.02v.021h.02v.02h.02v.02h.02v.02h.021v.021h.02v.02h.02v.02h.02v.021h.02v.02h.021v.02h.02v.021h.02v.02h.021v.02h.02v.021h.02v.02h.02v.02h.02v.021h.021v.02h.02v.02h.02v.021h.02v.02h.021v.02h.02v.02h.02v.021h.02v.02h.02v.02h.021v.021h.02v.02H15v.02h.021v.021h.02v.02h.02v.02h.02v.021h.02v.02h.021v.02h.02v.021h.02v.02h.183v.02h.202v.021h.182v.02h.182v.02h.202v.02h.183v.021h.202v.02h-3.075v.02h-.04v.021h-.041v.02h-.02v.041h-.02v.04h-.02v1.606h.02v.02h.02V14h.02v.021h.02v.02h.02v.02h.02v.041h.02v.02h.02v.02h.021v.042h.02v.02h.02v.02h.021v.02h.02v.041h.02v.02h.02v.02h.02v.021h.021v.04h.02v.021h.02v.02h.02v.041h.021v.02h.02v.02h.02v.021h.02v.04h.02v.02h.021v.021h.02v.02h.02v.041h.021v.02h.02v.02h.02v.041h.02v.02h.02v.021h.021v.02h.02v.041h.02v.02h.02v.02h.02v.021h.021v.04h.02v.02h.02v.021h.02v.04h-.02v-.02h-.02v-.02h-.02v-.02h-.02v-.02h-.02v-.02h-.02v-.02h-.021v-.021h-.02v-.02h-.02v-.02h-.02v-.021h-.02v-.02h-.021v-.02h-.02v-.021h-.02v-.02h-.02v-.02h-.02v-.021h-.021v-.02h-.02v-.02h-.02v-.021h-.02v-.02h-.02v-.02h-.021v-.021h-.02v-.02h-.02v-.02h-.02v-.02h-.021v-.021h-.02v-.02h-.02v-.02h-.02v-.021h-.021v-.02h-.02v-.02h-.02v-.021h-.02v-.02h-.021v-.02h-.02v-.021h-.02v-.02h-.02v-.02h-.02v-.021h-.021v-.02h-.02v-.02h-.02v-.021h-.02v-.02h-.02v-.02h-.021v-.021h-.02v-.02h-.02v-.02h-.021v-.02h-.02v-.021h-.02v-.02h-.02v-.02h-.02V14h-.021v-.02h-.02v-.02h-.02v-.021h-.02v-.02h-.021v-.02h-.02v-.021h-.02v-.02h-.02v-.02h-.02v-.021h-.021v-.02h-.02v-.02h-.02v-.021h-.021v-.02h-.02v-.02h-.02v-.02h-.02v-.021h-.02v-.02h-.021v-.02h-.02v-.021h-.02v-.02h-.02v-.02h-.02v-.021h-.021v-.02h-.02v-.02h-.02v-.021h-.02v-.02h-.02v-.02h-.021v-.021h-.02v-.02h-.02v-.02h-.02v-.021h-.021v-.02h-.02v-.02h-.02v-.02h-.021v-.021h-.02v-.02h-.02v-.02h-.02v-.021h-.02v-.02h-.021v-.02h-.02v-.021h-.02v-.02h-.02v-.02h-.02v-.021h-.021v-.02h-.02v-.02h-.02v-.021h-.02v-.02h-.02v-.02h-.021v-.021h-.02v-.02h-.02v-.02h-.021v-.021h-.02v-.02h-.02v-.02h-.04v-.02h-.142v.02h-.02v.02h-.041v.02h-.02v.02h-.02v.02h-.021v.02h-.02v.021h-.02v.02h-.02v.02h-.02v.021h-.021v.02h-.02v.02h-.02v.021h-.02v.02h-.02v.02h-.021v.021h-.02v.02h-.02v.02h-.02v.021H11.4v.02h-.02v.02h-.02v.021h-.02v.02h-.02v.02h-.021v.02h-.02v.021h-.02v.02h-.021v.02h-.02v.021h-.02v.02h-.02v.02h-.02v.021h-.021v.02h-.02v.02h-.02v.021h-.02v.02h-.02v.02h-.021v.021h-.02v.02h-.02v.02h-.02v.021h-.021v.02h-.02v.02h-.02v.02h-.02v.021h-.021v.02h-.02v.02h-.02v.021h-.02v.02h-.021v.02h-.02v.021h-.02v.02h-.02v.02h-.02v.021h-.021v.02h-.02V14h-.02v.021h-.02v.142h-.02v.163h-.021v.162h-.02v.163h-.02v.162h-.021v.163h-.02v.163h-.02v.162h-.02v.163h-.02v-3.109h-.021v-.06h-.02v-.021h-.02v-.02h-.02v-.02h-.021v-.021h-1.78v.02h-.02v.02h-.02v.02h-.02v.021h-.041v.02h-.02v.02h-.02v.021h-.02v.02h-.041v.02h-.02v.021h-.02v.02h-.02v.02h-.021v.021h-.04v.02h-.02v.02h-.02v.02h-.021v.021h-.04v.02h-.021v.02h-.02v.021h-.02v.02h-.02v.02h-.041v.021h-.02v.02h-.02v.02h-.02v.021H7.92v.02H7.9v.02h-.02v.021h-.02v.02h-.02v.02H7.8v.021h-.021v.02h-.02v.02h-.02v.02h-.04v.021h-.021v.02h-.02v.02h-.02v.021h-.02v.02h-.041v-.02h.02v-.02h.02v-.02h.02v-.02h.021v-.021h.02v-.02h.02v-.02h.02v-.02h.02v-.021h.021v-.02h.02v-.02h.02v-.021h.02v-.02h.02v-.02h.021v-.021h.02v-.02h.02v-.02h.02v-.021h.02v-.02h.021v-.02h.02v-.021h.02v-.02h.02v-.02h.02v-.021h.021v-.02h.02v-.02h.02v-.02h.021v-.021h.02v-.02h.02v-.02h.02v-.021h.021v-.02h.02v-.02h.02v-.021h.02v-.02h.02v-.02h.021v-.021h.02v-.02h.02v-.02h.02v-.021h.02v-.02h.021v-.02h.02v-.021h.02v-.02h.021v-.02h.02v-.02h.02v-.021h.02v-.02h.02v-.02h.021v-.021h.02v-.02h.02v-.02h.02v-.021h.02v-.02h.021v-.02h.02v-.021h.02v-.02h.02v-.02h.021v-.021h.02v-.02h.02v-.02h.021v-.021h.02v-.02h.02v-.02h.02v-.02h.02v-.021h.021v-.02h.02v-.02h.02v-.021h.02v-.02h.02v-.02h.021v-.021h.02v-.02h.02v-.02h.02V11.5h.02v-.02h.021v-.02h.02v-.021h.02v-.02h.02v-.02h.021v-.021h.02v-.02h.02v-.02h.02v-.02h.021v-.021h.02v-.02h.02v-.02h.02v-.021h.021v-.02h.02v-.02h.02v-.021h.02v-.02h.02v-.02h.021v-.021h.02v-.02h.02v-.02h.02v-.021h.02v-.02h.021v-.02h.02v-.021h.02v-.02h.021v-.02h.02v-.02h.02v-.021h.02v-.02h.02v-.02h.021v-.021h.02v-.061h.02v-.081h-.02v-.041h-.02v-.04h-.02v-.021h-.02v-.02h-.02v-.02H9.64v-.02h-.02v-.021H9.6v-.02h-.02v-.02h-.02v-.021h-.021v-.02h-.02v-.02h-.02v-.021h-.02v-.02h-.02v-.02h-.021v-.021h-.02v-.02h-.02v-.02h-.021v-.021h-.02v-.02h-.02v-.02h-.02v-.021h-.02v-.02h-.021v-.02h-.02v-.02h-.02v-.021h-.02v-.02h-.02v-.02h-.021v-.021h-.02v-.02h-.02v-.02h-.02v-.021h-.021v-.02h-.02v-.02h-.02v-.021h-.021v-.02h-.02v-.02h-.02v-.021h-.02v-.02h-.02v-.02h-.021v-.021h-.02v-.02h-.02v-.02h-.02v-.021h-.02v-.02H8.83v-.02h-.02v-.02h-.02v-.021h-.02v-.02h-.02v-.02h-.02v-.021h-.02v-.02h-.02v-.02h-.02V9.57h-.021v-.02h-.02v-.02h-.02v-.02h-.02v-.02h-.021v-.02h-.02v-.021h-.142v-.02h-.222v-.02h-.202v-.02h-.223v-.021h-.203v-.02h-.222v-.02h-.202v-.021h3.196v-.02h.02v-.02h.02v-.021h.02v-.02h.02v-.041h.021V7.539h-.02v-.02h-.02v-.04h-.02v-.021h-.021v-.02h-.02v-.02h-.02v-.041h-.02v-.02h-.02v-.021h-.021v-.02h-.02v-.04h-.02v-.021h-.021v-.02h-.02v-.02h-.02v-.042h-.02v-.02h-.02v-.02h-.021v-.02h-.02v-.041h-.02v-.02h-.02v-.02h-.02V7.01h-.021v-.04h-.02v-.02h-.02v-.02h-.02v-.02h-.02v-.041h-.021v-.02h-.02v-.02h-.02v-.021h-.02v-.04h-.021v-.021h-.02v-.02h-.02v-.02h-.02v-.041H9.72v-.02H9.7v-.021h-.02v-.02h-.02v-.041h-.02v-.02h-.02v-.02H9.6v-.041h.02v.02h.02v.02h.02v.02h.02v.02h.02v.021h.021v.02h.02v.02h.02v.021h.02v.02h.02v.02h.021v.021h.02v.02h.02v.02h.02v.021h.021v.02h.02v.02h.02v.021h.021v.02h.02v.02h.02v.021h.02v.02h.02v.02h.021v.021h.02v.02h.02v.02h.02v.02h.02v.021h.021v.02h.02v.02h.02v.021h.02v.02h.02v.02h.021v.021h.02v.02h.02v.02h.02v.021h.02v.02h.021v.02h.02v.021h.02v.02h.021v.02h.02v.02h.02v.021h.02v.02h.021v.02h.02v.021h.02v.02h.02v.02h.02v.021h.021v.02h.02v.02h.02v.021h.02v.02h.02v.02h.021V7.6h.02v.02h.02v.02h.021v.021h.02v.02h.02v.02h.02v.021h.02v.02h.021v.02h.02v.02h.02v.021h.02v.02h.02v.02h.021v.021h.02v.02h.02v.02h.02v.021h.021v.02h.02v.02h.02v.021h.021v.02h.02v.02h.02v.021h.02v.02h.02v.02h.021v.021h.02v.02h.02v.02h.02v.021h.02v.02h.021v.02h.02v.02h.02v.021h.02v.02h.02v.02h.021v.021h.02v.02h.02v.02h.02v.021h.021v.02h.02v.02h.02v.021h.02v.02h.021v.02h.02v.021h.02v.02h.02v.02h.021v.02h.02v.021h.02v.02h.02v.02h.041v.021h.04v.02h.082v-.02h.06v-.02h.02v-.02h.02v-.02h.02v-.021h.021v-.02h.02v-.02h.02v-.02h.02v-.021h.021v-.02h.02v-.02h.02v-.021h.02v-.02h.02v-.02h.021v-.021h.02v-.02h.02v-.02h.021V8.29h.02v-.02h.02v-.02h.02v-.02h.02v-.02h.021v-.02h.02v-.02h.02v-.021h.02v-.02h.02v-.02h.021v-.021h.02v-.02h.02v-.02h.02v-.021h.021v-.02h.02v-.02h.02v-.021h.02v-.02h.02v-.02h.021v-.021h.02v-.02h.02v-.02h.021v-.021h.02v-.02h.02v-.02h.02v-.021h.02v-.02h.021v-.02h.02v-.02h.02v-.021h.02v-.02h.02v-.02h.021V7.64h.02v-.02h.02V7.6h.02v-.02h.02v-.02h.021v-.02h.02v-.021h.02v-.02h.02v-.02h.021v-.021h.02v-.081h.02v-.204h.021V6.97h.02v-.183h.02v-.203h.02v-.183h.02v-.203h.021v-.183h.02v3.19h.02v.02h.02v.041h.02v.02h.042v.02h1.74v-.02h.019v-.02h.02v-.02h.04v-.02h.021v-.02h.02v-.021h.02v-.02h.04v-.02h.021v-.021h.02v-.02h.02v-.02h.041v-.021h.02v-.02h.02v-.02h.021v-.021h.02v-.02h.04v-.02h.02v-.02h.021V8.92h.02V8.9h.04v-.02h.02v-.02h.021v-.02h.02v-.02h.04v-.021h.02v-.02h.021v-.02h.02v-.021h.041v-.02h.02v-.02h.02v-.021h.02v-.02h.041v-.02h.02v-.021h.02v-.02h.02v-.02h.041v-.021h.02v-.02h.02v-.02h.02v-.02h.041zM9.6 6.483h-.02v-.02h.02v.02zm-.02-.02h-.02v-.02h.02v.02zm-.02-.02h-.021v-.021h.02v.02zm-.021-.021h-.02v-.02h.02v.02zm-.101-.467v.02h-.02v-.02h.02zm0 0v-.041h.02v-.04h.02v-.041h.02v-.02h.02v-.041h.02v-.04h.021V5.69h.02v-.04h.02v-.02h.021v-.041h.02v-.04h.02v-.041h.02v-.02h.02v-.041h.021v-.041h.02v-.04h.02v-.041h.02v-.02h.02v-.041h.021v-.04h.02v-.041h.02v-.041h.02v-.02h.021V5.08h.02v-.04h.02V5h.021v-.02h.02v-.041h.02v-.04h.02v-.042h.02v-.04h.021v-.02h.02v-.041h.02v-.04h.02v-.041h.02v-.041h.021v-.02h.02v-.04h.02v-.042h.02v-.04h.02v-.02h.021V4.43h.02v-.04h.02v-.04h.02v-.041h.02v-.02h.021v-.041h.02v-.04h.02v-.041h.021v-.061h-.02v-.04h-.02v-.041h-.02v-.02h-.041v-.021h-3.46v.02h-.02v.02h-.02v.02h-.02v.021h-.02v.061h-.02v4.896h-.02v-.06h-.02V8.88h-.02v-.06h-.021v-.062h-.02v-.081h-.02v-.061h-.021v-.081h-.02v-.061h-.02v-.082h-.02v-.06h-.02V8.25h-.021v-.06h-.02v-.062h-.02v-.08h-.02v-.062h-.021v-.081h-.02v-.061h-.02v-.081h-.02v-.061h-.02V7.62h-.021v-.06h-.02v-.082h-.02v-.06h-.021v-.062h-.02v-.08h-.02v-.062h-.02v-.081h-.02v-.04H6.18v-.021h-.06v-.02h-.102v.02h-.04v.02h-.02v.02h-.02v.02h-.02v.021h-.021v.02h-.02v.02h-.02v.021h-.021v.02h-.02v.02h-.02v.021h-.02v.02h-.02v.02h-.021v.02h-.02v.021h-.02v.02h-.02v.02h-.02v.021h-.021v.02h-.02v.02h-.02v.021h-.02v.02h-.02v.02h-.021v.021h-.02v.02h-.02v.02h-.021V7.6h-.02v.02h-.02v.02h-.02v.021h-.02v.02h-.021v.02h-.02v.021h-.02v.02h-.02v.02H5.29v.02h-.02v.021h-.02v.02h-.02v.02h-.02v.021h-.02v.02h-.02v.02h-.02v.021h-.021v.02h-.02v.02h-.02v.021h-.02v.02h-.02v.02h-.021v.021h-.02v.02h-.02v.02h-.02v.021h-.02v.02h-.021v.02h-.02v.021h-.02v.02h-.02v.02h-.021v.02h-.02v.021h-.02v.02h-.02v.02h-.02v.021h-.021v.02h-.02v.02h-.02v.021h-.021v.02h-.02v.02h-.02v.021h-.02v.02h-.02v.02h-.021v.021h-.02v.02h-.02v.02h-.02v.02h-.02v.021h-.021v.02h-.02v.02h-.02v.021h-.02v.02h-.02v.02H4.38v.021h-.02v.02h-.02v.02h-.02v.021H4.3v.02h-.02v.02h-.02v.021h-.02v.02h-.021v.02h-.02v.021h-.02v.02h-.02v.02h-.021v.021h-.02v.02h-.02v.02h-.02v.02h-.02v.021h-.021v.02h-.02v.02h-.02v.021h-.021v.02h-.02v.02h-.02v.021h-.02v.02h-.02v.02h-.021v.021h-.02v.02h-.02v.02h-.02v.021h-.02v.02h-.021v.02h-.02v.021h-.02v.02h-.02v.02h-.021v.021h-.02v.02h-.02v.02h-.02v.02h-.02v.021h-.021v.02h-.02v.163h.02v.02h.02v.041h.02v.02h.02v.02h.02v.02h.02v.021h.021v.02h.02v.02h.02v.021h.02v.02h.021v.02h.02v.021h.02v.02h.021v.02h.02v.021h.02v.02h.02v.02h.02v.021h.021v.02h.02v.02h.02v.021h.02v.02h.02v.02h.021v.021h.02v.02h.02v.02h.02v.02h.02v.021h.021v.02h.02v.02h.02v.021h.021v.02h.02v.02h.02v.021h.02v.02h.02v.02h.021v.021h.02v.02h.02v.02h.02v.021h.021v.02h.02v.02h.02v.021h.02v.02h.02v.02h.021v.02h.02v.021h.02v.02h.021v.02h.02v.021h.02v.02h.02v.02h.02v.021h.021v.02h.02v.02h.02v.021h.02v.02h.02v.02h.021v.021h.02v.02h.02v.02h.02v.021h.02v.02h.021v.02h.02v.02h.02v.021h.02v.02h.021v.02h.02v.021h.02v.02h.021v.02h.02v.021h.02v.02h.02v.02h.02v.021h.021v.02h.02v.02h.02v.021h.02v.02h.02v.02h.021v.021h.02v.02h.02v.02h.02v.02h.02v.021h.021v.02h.02v.02h.02v.021h.021v.02h.02v.02h.02v.021h.02v.02h.02v.02h.021v.021h.02v.02h.02v.02h.02v.021h.021v.02h.02v.02h.02v.021h.02v.02h.02v.02h.021v.02h.02v.021h.02v.02h.021v.02h.02v.021h.02v.02h.02v.02h.02v.021h.021v.02h.02v.02h.02v.021h.02v.02h.02v.02h.021v.021h.02v.02h.02v.02h.02v.021H6v.02h.02v.02h.02v.02h.02v.021h.02v.02h.02v.02h.02v.021h.02v.02h.021v.02h.02v.021h.02v.02h.02v.02h.02v.021h.021v.02h.02v.02h.02v.021h.02v.02h.02v.02h.021v.021h.02v.02h.02v.02h.02v.02h.02v.021h.021v.02h.02v.02h.02v.021h.02v.02h.021v.02h.02v.021h.02v.02h.021v.02h.02v.021h.02v.02h.02v.02h.02v.021h.021v.02h.02v.02h.02v.021h.02v.02h.02v.02h.021v.02h.02v.021h.02v.02h.02v.02h.02v.021h.021v.02h.02v.02h.02v.021h.021v.02h.02v.02h.02v.021h.02v.02h-.04v-.02h-.04v-.02h-.02v-.02h-.041v-.02h-.04v-.021h-.04v-.02h-.041v-.02h-.02v-.021h-.04v-.02h-.042v-.02h-.04v-.021h-.04v-.02h-.04v-.02h-.021v-.02h-.04v-.021h-.041v-.02h-.04v-.02h-.04v-.021h-.021v-.02h-.04v-.02h-.04v-.021h-.041v-.02H6.18v-.02h-.02v-.021h-.04v-.02h-.04v-.02h-.04v-.021H6v-.02h-.042v-.02h-.02v-.021h-.04v-.02h-.04v-.02h-.041v-.02h-.04v-.021h-.02v-.02h-.041v-.02h-.04v-.021h-.041v-.02h-.04v-.02h-.04v-.021h-.021v-.02h-.04v-.02h-.041v-.021h-.04v-.02h-.041v-.02h-.02v-.021H5.23v.02h-.04v.02h-.02v.02h-.02v.041h-.021v3.434h.02v.04h.02v.02h.02v.021h.021v.02h.04v.02h4.936v.021h-.06v.02h-.081v.02h-.061v.021h-.08v.02h-.061v.02H9.76v.021H9.7v.02h-.08v.02h-.081v.021h-.06v.02h-.082v.02h-.06v.02h-.081v.021h-.06v.02h-.082v.02h-.06v.021h-.081v.02h-.06v.02H8.83v.021h-.06v.02h-.08v.02h-.082v.021h-.06v.02h-.081v.02h-.06v.021h-.082v.02h-.06v.02h-.041v.041h-.02v.061h-.02v.04h.02v.062h.02v.04h.02v.02h.02v.021h.02v.02h.021v.02h.02v.021h.02v.02h.02v.02h.02v.021h.021v.02h.02v.02h.02v.02h.021v.021h.02v.02h.02v.02h.02v.021h.02v.02h.021v.02h.02v.021h.02v.02h.02v.02h.02v.021h.021v.02h.02v.02h.02v.021h.02v.02h.021v.02h.02v.021h.02v.02h.021v.02h.02v.02h.02v.021h.02v.02h.02v.02h.021v.021h.02v.02h.02v.02h.02v.021h.02v.02h.021v.02h.02v.021h.02v.02h.02v.02h.02v.021h.021v.02h.02v.02h.02v.021h.02v.02h.021v.02h.02v.02h.02v.021h.02v.02h.021v.02h.02v.021h.02v.02h.02v.02h.021v.021h.02v.02h.02v.02h.02v.021h.02v.02h.021v.02h.02v.021h.02v.02h.02v.02h.02v.021h.021v.02h.02v.02h.02v.021h.021v.02h.02v.02h.02v.02h.02v.021h.02v.02h.021v.02h.02v.021h.02v.02h.02v.02h.02v.021h.021v.02h.02v.02h.02v.021h.02v.02h.021v.02h.02v.021h.02v.02h.021v.02h.02v.02h.02v.021h.02v.02h.02v.02h.021v.021h.02v.02h.02v.02h.02v.021h.02v.02h.021v.02h.02v.021h.02v.02h.02v.02h.02v.021h.021v.02h.02v.02h.02v.021h.02v.02h.02v.02h.021v.021h.02v.02h.02v.02h.021v.02h.02v.021h.02v.02h.02v.02h.021v.021h.02v.02h.02v.02h.02v.021h.041v.02h.04v.02h.102v-.02h.04v-.02h.04v-.02h.02v-.02h.021v-.02h.02v-.021h.02v-.02h.02v-.02h.02v-.021h.021v-.02h.02v-.02h.02v-.02h.02v-.021h.021v-.02h.02v-.02h.02v-.021h.021v-.02h.02v-.02h.02v-.021h.02v-.02h.02v-.02h.021v-.021h.02v-.02h.02v-.02h.02v-.021h.02v-.02h.021v-.02h.02v-.021h.02v-.02h.02v-.02h.02v-.021h.021v-.02h.02v-.02h.02v-.02h.02v-.021h.021v-.02h.02v-.02h.02v-.021h.02v-.02h.021v-.02h.02v-.021h.02v-.02h.02v-.02h.021v-.021h.02v-.02h.02v-.02h.02v-.021h.02v-.02h.021v-.02h.02v-.02h.02v-.021h.02v-.02h.02v-.02h.021v-.021h.02v-.02h.02v-.02h.021v-.021h.02v-.02h.02v-.02h.02v-.021h.02v-.02h.021v-.02h.02v-.021h.02v-.02h.02v-.02h.021v-.021h.02v-.02h.02v-.02h.02v-.021h.02v-.02h.021v-.02h.02v-.02h.02v-.021h.021v-.02h.02v-.02h.02v-.021h.02v-.02h.02v-.02h.021v-.021h.02v-.02h.02v-.02h.02v-.021h.02v-.02h.021v-.02h.02v-.021h.02v-.02h.02v-.02h.021v-.021h.02v-.02h.02v-.02h.02v-.02h.02v-.021h.021v-.02h.02v-.02h.02v-.021h.021v-.02h.02v-.02h.02v-.021h.02v-.02h.02v-.02h.021v-.021h.02v-.02h.02v-.02h.02v-.021h.02v-.02h.021v-.02h.02v-.021h.02v-.02h.02v-.02h.02v-.02h.021v-.021h.02v-.02h.02v-.02h.02v-.021h.021v-.02h.02v-.02h.02v-.021h.021v-.02h.02v-.02h.02v-.021h.02v-.02h.02v-.02h.021v-.021h.02v-.02h.02v-.02h.02v-.021h.02v-.02h.021v-.02h.02v-.02h.02v-.021h.02v-.02h.02v-.02h.021v-.021h.02v-.02h.02v-.02h.021v-.021h.02v-.02h.02v-.02h.02v-.021h.02v-.02h.021v-.02h.02v-.021h.02v-.02h.02v-.02h.021v-.021h.02v-.02h.02v-.02h.02v-.02h.02v-.021h.021v-.02h.02v-.02h.02v-.021h.021v-.02h.02v-.02h.02v-.021h.02v-.02h.02v-.02h.021v-.021h.02v-.02h.02v-.02h.02v-.021h.02v-.02h.021v-.02h.02v-.021h.02v-.02h.02v-.02h.021v-.02h.02v-.021h.02v-.02h.02v-.02h.02v-.021h.021v.04h-.02v.02h-.02v.041h-.02v.04h-.02v.042h-.02v.02h-.021v.04h-.02v.041h-.02v.04h-.02v.041h-.021v.02h-.02v.041h-.02v.041h-.021v.04h-.02v.041h-.02v.02h-.02v.041h-.02v.04h-.021v.042h-.02v.04h-.02v.02h-.02v.041h-.02v.04h-.021v.041h-.02v.02h-.02v.041h-.02v.04h-.02v.042h-.021v.04h-.02v.02h-.02v.041h-.02v.04h-.021v.041h-.02v.041h-.02v.02h-.02v.04h-.021v.042h-.02v.04h-.02v.02h-.02v.041h-.021v.04h-.02v.041h-.02v.041h-.02v.02h-.02v.041h-.021v.04h-.02v.041h-.02v.04h-.02v.042h.02v.06h.02v.02h.02v.021h.02v.02h.04v.02h3.42v-.02h.04v-.02h.02v-.02h.02v-.02h.02v-.061h.02v-4.917h.02v.06h.021v.082h.02v.061h.02v.061h.02v.081h.021v.061h.02v.082h.02v.06h.02v.082h.02v.06h.021v.082h.02v.061h.02v.06h.02v.082h.02v.061h.021v.081h.02v.061h.02v.082h.021v.06h.02v.082h.02v.06h.02V14h.02v.081h.021v.06h.02v.082h.02v.061h.02v.081h.02v.041h.021v.02h.02v.02h.04v.021h.102v-.02h.04v-.02h.02v-.02h.021v-.021h.02v-.02h.02v-.02h.02v-.021h.02v-.02h.021v-.02h.02v-.021h.02v-.02h.02v-.02h.02v-.021h.021v-.02h.02v-.02h.02v-.021h.02v-.02h.021v-.02h.02v-.02h.02v-.021h.02v-.02h.021v-.02h.02V14h.02v-.02h.02v-.02h.021v-.021h.02v-.02h.02v-.02h.02v-.021h.02v-.02h.021v-.02h.02v-.021h.02v-.02h.02v-.02h.02v-.021h.021v-.02h.02v-.02h.02v-.02h.021v-.021h.02v-.02h.02v-.02h.02v-.021h.02v-.02h.021v-.02h.02v-.021h.02v-.02h.02v-.02h.021v-.021h.02v-.02h.02v-.02h.02v-.021h.02v-.02h.021v-.02h.02v-.021h.02v-.02h.021v-.02h.02v-.02h.02v-.021h.02v-.02h.02v-.02h.021v-.021h.02v-.02h.02v-.02h.02v-.021h.02v-.02h.021v-.02h.02v-.021h.02v-.02h.02v-.02h.02v-.021h.021v-.02h.02v-.02h.02v-.021h.02v-.02h.021v-.02h.02v-.021h.02v-.02h.021v-.02h.02v-.02h.02v-.021h.02v-.02h.02v-.02h.021v-.021h.02v-.02h.02v-.02h.02v-.021h.02v-.02h.021v-.02h.02v-.021h.02v-.02h.02v-.02h.02v-.021h.021v-.02h.02v-.02h.02v-.021h.02v-.02h.021v-.02h.02v-.02h.02v-.021h.02v-.02h.021v-.02h.02v-.021h.02v-.02h.02v-.02h.021v-.021h.02v-.02h.02v-.02h.02v-.021h.02v-.02h.021v-.02h.02v-.021h.02v-.02h.021v-.02h.02v-.021h.02v-.02h.02v-.02h.02v-.02h.021v-.021h.02v-.02h.02v-.02h.02v-.062h.02v-.04h-.02v-.061h-.02v-.041h-.02v-.02h-.02v-.02h-.02v-.021h-.02v-.02h-.02v-.02h-.021v-.02h-.02v-.021h-.02v-.02h-.02v-.02h-.02v-.021h-.021v-.02h-.02v-.02h-.02v-.021h-.02v-.02h-.02v-.02h-.021V11.5h-.02v-.02h-.02v-.02h-.021v-.021h-.02v-.02h-.02v-.02h-.02v-.021h-.02v-.02h-.021v-.02h-.02v-.02h-.02v-.021h-.02v-.02h-.021v-.02h-.02v-.021h-.02v-.02h-.02v-.02h-.02v-.021h-.021v-.02h-.02v-.02h-.02v-.021h-.021v-.02h-.02v-.02h-.02v-.021h-.02v-.02h-.02v-.02h-.021v-.021h-.02v-.02h-.02v-.02h-.02v-.02h-.02v-.021h-.021v-.02h-.02v-.02h-.02v-.021h-.02v-.02h-.021v-.02h-.02v-.021h-.02v-.02h-.02v-.02h-.02v-.021h-.021v-.02h-.02v-.02h-.02v-.021h-.021v-.02h-.02v-.02h-.02v-.021h-.02v-.02h-.02v-.02h-.021v-.02h-.02v-.021h-.02v-.02h-.02v-.02h-.02v-.021h-.021v-.02h-.02v-.02h-.02v-.021h-.02v-.02h-.02v-.02h-.021v-.021h-.02v-.02h-.02v-.02h-.021v-.021h-.02v-.02h-.02v-.02h-.02v-.021h-.02v-.02h-.021v-.02h-.02v-.02h-.02v-.021h-.02v-.02h-.021v-.02h-.02v-.021h-.02v-.02h-.02v-.02h-.02v-.021h-.021v-.02h-.02v-.02h-.02v-.021h-.021v-.02h-.02v-.02h-.02v-.021h-.02v-.02h-.02v-.02h-.021v-.021h-.02v-.02h-.02v-.02h-.02v-.021h-.02v-.02h-.021v-.02h-.02v-.02h-.02v-.021h-.02v-.02h-.021v-.02h-.02v-.021h-.02v-.02h-.02v-.02h-.02V9.57h-.021v-.02h-.02v-.02h-.02v-.02h-.021v-.02h-.02v-.02h-.02v-.021h-.02v-.02h-.02v-.02h-.021v-.02h-.02v-.021h-.02v-.02h-.02v-.02h-.02v-.021h-.021v-.02h-.02v-.02h-.02v-.021h-.02v-.02h-.021v-.02h-.02v-.021h-.02v-.02h-.02v-.02h-.021v-.021h-.02v-.02h-.02v-.02h-.02v-.021h-.021v-.02h-.02v-.02h-.02v-.021h-.02v-.02h-.02v-.02h-.021v-.02h-.02V8.92h-.02V8.9h-.02v-.02h-.02v-.02h-.021v-.02h-.02v-.02h-.02v-.021h-.021v-.02h-.02v-.02h-.02v-.021h-.02v-.02h-.02v-.02h-.021v-.021h-.02v-.02h-.02v-.02h-.02v-.021h-.021v-.02h-.02v-.02h-.02v-.021h-.02v-.02h-.02v-.02H16.8v-.02h-.02v-.021h-.02v-.02h-.021v-.02h-.02v-.021h-.02v-.02h-.02v-.02h-.02v-.021h.04v.02h.02v.02h.04v.02h.04v.021h.042v.02h.04v.02h.02v.021h.04v.02h.041v.02h.04v.02h.041v.021h.04v.02h.02v.02h.041v.021h.04v.02h.04v.02h.042v.021h.02v.02h.04v.02h.04v.021h.041v.02h.04v.02h.04v.021h.021v.02h.04v.02h.041v.021h.04v.02h.04v.02h.041v.021h.02v.02h.041v.02h.04v.02h.041v.021h.04v.02h.02v.02h.041v.021h.04v.02h.041v.02h.04v.021h.041v.02h.02v.02h.04v.021h.041v.02h.04v.02h.041v.021h.02v.02h.04v.02h.102v-.02h.04v-.02h.02v-.02h.02v-.02h.021v-.082h.02V5.792h-.02v-.06h-.02V5.71h-.02v-.02h-.02v-.02h-.041v-.02h-4.956v-.02h.06v-.02h.062v-.021h.08v-.02h.081v-.02h.061v-.021h.08v-.02h.061v-.02h.082v-.021h.06v-.02h.08v-.02h.062v-.021h.08v-.02h.061v-.02h.081v-.02h.08v-.021h.062v-.02h.08v-.02h.062v-.021h.08v-.02h.06v-.02h.082v-.021h.06v-.02h.081v-.02h.061v-.021h.08v-.02h.061v-.02h.082V5.08h.04v-.02h.02v-.04h.02v-.142h-.02v-.02h-.02v-.041h-.02v-.02h-.02v-.02h-.02v-.021h-.02v-.02h-.021v-.02h-.02v-.021h-.02v-.02h-.02v-.02h-.021v-.021h-.02v-.02h-.02v-.02h-.02v-.02h-.02v-.021h-.021v-.02h-.02v-.02h-.02v-.021h-.021v-.02h-.02v-.02h-.02V4.43h-.02v-.02h-.02v-.02h-.021v-.02h-.02v-.02H15v-.02h-.02v-.021h-.02v-.02h-.021v-.02h-.02v-.021h-.02v-.02h-.02v-.02h-.02v-.02h-.021v-.021h-.02v-.02h-.02v-.02h-.02v-.021h-.021v-.02h-.02v-.02h-.02v-.021h-.02v-.02h-.021v-.02h-.02v-.021h-.02v-.02h-.02v-.02h-.021v-.021h-.02v-.02h-.02v-.02h-.02v-.021h-.02v-.02h-.021v-.02h-.02v-.02h-.02V3.78h-.02v-.02h-.02v-.02h-.021v-.02h-.02V3.7h-.02v-.02h-.021v-.021h-.02v-.02h-.02v-.02h-.02v-.021h-.02v-.02h-.021v-.02h-.02v-.021h-.02v-.02h-.02v-.02h-.02v-.021h-.021v-.02h-.02v-.02h-.02v-.02h-.02v-.021h-.021v-.02h-.02v-.02h-.02v-.021h-.021v-.02h-.02v-.02h-.02v-.021h-.02v-.02h-.02v-.02h-.021v-.021h-.02v-.02h-.02v-.02h-.02V3.15h-.02v-.02h-.021v-.02h-.02v-.02h-.02v-.02h-.02v-.02h-.02v-.021h-.021v-.02h-.02v-.02h-.02v-.02h-.02v-.021h-.021v-.02h-.02v-.02h-.02v-.021h-.02v-.02h-.021v-.02h-.02v-.021h-.02v-.02h-.02v-.02h-.021v-.021h-.02v-.02h-.02v-.02h-.02v-.021h-.02v-.02h-.021v-.02h-.02v-.021h-.02v-.02h-.02v-.02h-.02v-.02h-.021v-.021h-.02v-.02h-.02v-.02h-.021V2.5h-.02v-.02h-.04v-.02h-.02v-.02h-.143v.02h-.04v.02h-.02v.02h-.02v.021h-.02v.02h-.021v.02h-.02v.021h-.02v.02h-.02v.02h-.02v.02h-.021v.021h-.02v.02h-.02v.02h-.02v.021h-.02v.02h-.021v.02h-.02v.021h-.02v.02h-.02v.02h-.02v.021h-.021v.02h-.02v.02h-.02v.021h-.02v.02h-.021v.02h-.02v.021h-.02v.02h-.021v.02h-.02v.02h-.02v.021h-.02v.02h-.02v.02h-.021v.021h-.02v.02h-.02v.02h-.02v.021h-.02v.02h-.021v.02h-.02v.021h-.02v.02h-.02v.02h-.02v.021h-.021v.02h-.02v.02h-.02v.021h-.021v.02h-.02v.02h-.02v.021h-.02v.02h-.02v.02h-.021v.02h-.02v.021h-.02v.02h-.02v.02h-.021v.021h-.02v.02h-.02v.02h-.02v.021h-.02v.02h-.021v.02h-.02v.021h-.02v.02h-.021v.02h-.02v.021h-.02v.02h-.02v.02h-.02v.021h-.021v.02h-.02v.02h-.02v.02h-.02v.021h-.02v.02h-.021v.02h-.02v.021h-.02v.02h-.02v.02h-.02v.021h-.02v.02h-.02v.02h-.02v.021h-.02v.02h-.021v.02h-.02v.021h-.02v.02h-.021v.02h-.02v.021h-.02v.02h-.02v.02h-.02v.02h-.021v.021h-.02v.02h-.02v.02h-.02v.021h-.02v.02h-.021v.02h-.02v.021h-.02v.02h-.02v.02h-.021v.021h-.02v.02h-.02v.02h-.02v.021h-.021v.02h-.02v.02h-.02v.021h-.02v.02h-.021v.02h-.02v.02h-.02v.021h-.02v.02h-.02v.02h-.021v.021h-.02v.02h-.02v.02h-.02v.021h-.02v.02h-.021v.02h-.02v.021h-.02v.02h-.021v.02h-.02v.021h-.02v.02h-.02v.02h-.02v.021h-.021v.02h-.02V5h-.02v.02h-.02v.021h-.021v.02h-.02v.02h-.02v.021h-.02v.02h-.02v.02h-.021v.021h-.02v.02h-.02v.02h-.021v.021h-.02v.02h-.02v.02h-.02v.021h-.02v.02h-.021v.02h-.02v.021h-.02v.02h-.02v.02h-.02v.02h-.021v.021h-.02v.02h-.02v.02h-.02v.021h-.02v.02h-.021v.02h-.02v.021h-.02v.02h-.02v.02h-.021v.021h-.02v.02h-.02v.02h-.02v.021H9.72v.02H9.7v.02h-.02v.021h-.02v.02h-.02v.02h-.02v.02H9.6v.021h-.02v.02h-.02v.02h-.021v.021h-.02v.02h-.02v.02h-.02v.021h-.02v.02h-.021zM4.36 22.248h-.02v.04h-.02v.041H4.3v.02h-.02v.021h-.02v.02h-.02v.02h-.042v.021h-.04v.02h-.04v.02h-.081v.02h-.708v-.812h.748v.02h.06v.02h.042v.021h.04v.02h.02v.02h.02v.021h.02v.02h.02v.02h.02v.041h.021v.041h.02v.061h.02v.203h-.02v.061zm-1.517-2.255h-.06v.02h-.04v.02h-.021v.021h-.02v.02h-.02v.04h-.02v2.845h.02V23h.02v.021h.02v.02h.04v.02h.041v.021h1.456v-.02h.101v-.02h.061v-.02h.06V23h.041v-.02h.04v-.02h.041v-.021h.04v-.02h.02v-.02h.041v-.021h.02v-.02h.02v-.02h.021v-.02h.02v-.021h.02v-.02h.02v-.02h.02v-.021h.021v-.02h.02v-.02h.02v-.042h.02v-.02h.021v-.04h.02v-.041h.02v-.04h.02v-.041h.02v-.061h.021v-.061h.02v-.102h.02v-.325h-.02v-.081h-.02v-.061h-.02v-.061h-.02v-.04h-.02v-.041h-.02v-.04h-.02v-.021h-.021v-.04h-.02v-.021h-.02v-.04h-.021v-.021h-.02v-.02h-.02v-.02h-.02v-.021h-.02v-.02h-.021v-.02h-.02v-.021h-.02v-.02h-.02v-.02h-.041v-.02h-.02v-.021h-.04v-.02h-.021v-.02h-.04v-.021h-.061v-.02h-.04v-.02H4.38v-.021h-.1v-.02h-.951v-.55h1.375v-.02h.02v-.04h.02v-.467h-.02v-.04h-.04v-.021h-1.84v.02zm5.482 0h-.06v.02h-.02v.02h-.021v.021h-.02v.02h-.02v.04h-.021v.062h-.02v.223h-.02v.346h-.02v.345h-.02v.285h-.021v.243h-.02v.204h-.02v.142h-.02v.101h-.02v.082H7.96v.06h-.02v.061h-.02v.041H7.9v.04h-.02v.021h-.02v.02h-.02v.02h-.02v.021H7.8v.02h-.021v.02h-.061v.02h-.121v.021h-.02v.02h-.02v.508h.02v.02h.02v.021H7.9v-.02h.101v-.02h.061v-.02h.04V23h.041v-.02h.02v-.02h.04v-.021h.02v-.02h.021v-.02h.02v-.021h.02v-.02h.02v-.02h.02v-.02h.021v-.021h.02v-.04h.02v-.021h.021v-.04h.02v-.021h.02v-.04h.02v-.041h.02v-.041h.021v-.061h.02v-.04h.02v-.062h.02v-.06h.021v-.082h.02v-.101h.02v-.102h.02v-.122h.02v-.162h.021v-.204h.02v-.243h.02v-.285h.021v-.325h.02v-.122h.85v2.479h.02v.02h.627v-.02h.02v-2.946h-.02v-.04h-.02v-.02h-.02v-.021h-.02v-.02h-.041v-.02h-.06v-.021H8.324v.02zm2.427 0h-.04v.02h-.02v3.048h.02v.02h.627v-.02h.02V21.7h.485v.02h.122v.02h.06v.02h.04v.02h.021v.021h.02v.02h.02v.02h.021v.021h.02v.02h.02v.041h.02v.04h.02v.041h.021v.061h.02v.082h.02v.06h.02v.082h.021v.081h.02v.061h.02v.081h.02v.061h.02v.081h.021v.061h.02v.082h.02v.06h.021v.082h.02v.06h.02v.062h.02v.02h.608v-.02h.02v-.02h.02v-.082h-.02v-.081h-.02v-.06h-.02v-.082h-.021v-.082h-.02v-.08h-.02v-.062h-.02v-.08h-.02v-.082h-.021v-.082h-.02v-.06h-.02v-.082h-.02v-.08h-.02v-.082h-.021v-.061h-.02v-.061h-.02v-.061h-.021v-.04h-.02V21.7h-.02v-.04h-.02v-.021h-.02v-.04h-.021v-.021h-.02v-.02h-.04v-.02h-.021v-.021h-.02v-.02h-.04v-.02h-.041v-.021h-.04v-.02h-.061v-.02h.02v-.021h.04v-.02h.02v-.02h.02v-.021h.021v-.02h.02v-.02h.02v-.02h.02v-.021h.02v-.02h.021v-.02h.02v-.042h.02v-.02h.02v-.04h.021v-.041h.02v-.04h.02v-.062h.02v-.06h.021v-.082h.02v-.081h.02v-.081h.02v-.082h.021v-.08h.02v-.082h.02v-.082h.02v-.08h.02v-.062h.021v-.081h.02v-.102h-.02v-.02h-.04v-.02h-.526v.02h-.04v.02h-.021v.041h-.02v.081h-.02v.082h-.02v.06h-.02v.082h-.021v.081h-.02v.081h-.02v.061h-.02v.082h-.021v.08h-.02v.062h-.02v.06h-.02v.062h-.02v.04h-.021v.02h-.02v.041h-.02v.02h-.021v.02h-.02v.021h-.02v.02h-.04v.02h-.041v.021h-.06v.02h-.527v-1.158h-.02v-.02h-.04v-.02h-.547v.02zm3.581 1.849h.02v-.061h.02v-.061h.02v-.081h.02v-.061h.02v-.061h.021v-.081h.02v-.061h.02v-.061h.02v-.082h.02v-.08h.021v-.082h.02v-.061h.02v-.081h.021v-.082h.02v-.08h.02v-.062h.02v.02h.021v.082h.02v.08h.02v.082h.02v.061h.02v.081h.021v.082h.02v.081h.02v.081h.02v.061h.02v.061h.021v.081h.02v.061h.02v.061h.021v.082h.02v.06H15v.061h-.667v-.04zm.08-1.849h-.06v.02h-.02v.02h-.02v.021h-.02v.02h-.021v.02h-.02v.041h-.02v.04h-.02v.062h-.02v.06h-.021v.062h-.02v.06h-.02v.062h-.02v.06h-.02v.062h-.021v.06h-.02v.061h-.02v.061h-.02v.061h-.021v.061h-.02v.061h-.02v.061h-.02v.061h-.021v.061h-.02v.061h-.02v.061h-.02v.06h-.021v.062h-.02v.06h-.02v.062h-.02v.06h-.02v.062h-.021v.06h-.02v.062h-.02v.06h-.02v.061h-.02v.061h-.021v.061h-.02v.061h-.02v.061h-.021v.061h-.02v.061h-.02v.061h-.02v.061h-.02v.061h-.021v.06h-.02v.062h-.02v.06h-.02v.062h-.02v.081h-.021v.061h-.02v.06h-.02v.062h-.02v.06h-.021v.021h.02v.04h.02v.021h.648v-.02h.02V23h.02v-.061h.02v-.061h.02v-.06h.02v-.082h.021v-.061h.02v-.061h.02v-.061h.021v-.081h.02v-.02h1.011v.06h.02v.082h.02v.06h.021v.061h.02v.082h.02v.06h.02v.062h.02v.08h.021v.041h.02v.02h.02v.021h.648v-.02h.02v-.122h-.02v-.061h-.02v-.06h-.02v-.062h-.02v-.06h-.02v-.062h-.021v-.06h-.02v-.062h-.02v-.06h-.021v-.062h-.02v-.06h-.02v-.062h-.02v-.06h-.02v-.061h-.021v-.061h-.02v-.061h-.02v-.061h-.02v-.061h-.02v-.061h-.021v-.061h-.02v-.061h-.02v-.06h-.02v-.062h-.021v-.06h-.02v-.062h-.02v-.06h-.021v-.062h-.02v-.06h-.02v-.062h-.02v-.06h-.02v-.062h-.021v-.06h-.02v-.061h-.02v-.061h-.02v-.061h-.02v-.061h-.021v-.061h-.02v-.061h-.02v-.061h-.02v-.061h-.02v-.06h-.021v-.062h-.02v-.06h-.02v-.062h-.02v-.06h-.021v-.062h-.02v-.06h-.02v-.041h-.02v-.02h-.021v-.02h-.02v-.021h-.02v-.02h-.041v-.02h-.06v-.021h-.506v.02zm-8.455 0h-.08v.02h-.061v.02h-.06v.021h-.041v.02h-.04v.02h-.02v.02h-.041v.021h-.02v.02h-.04v.02h-.021v.021h-.02v.02h-.02v.02h-.021v.021h-.02v.04h-.02v.021h-.02v.02h-.02v.041h-.021v.02h-.02v.041h-.02v.04h-.02v.062H5.29v.06h-.02v.122h-.02v1.626h.02v.101h.02v.082h.02v.04h.02v.04h.02v.041h.021v.041h.02v.04h.02v.021h.02v.02h.02v.02h.021v.021h.02v.02h.02v.02h.02v.02h.021v.021h.02v.02h.02v.02h.04v.021h.021v.02h.04V23h.04v.021h.042v.02h.06v.02h.081v.021h1.477v-.02h.02v-.549h-.04v-.02H6.1v-.02h-.06v-.02h-.02v-.02H6v-.021h-.021v-.02h-.02v-.041h-.02v-.67h1.294v-.02h.02v-.021h.02v-.508h-.02v-.02H5.94v-.407h.02v-.04h.02v-.02H6v-.021h.02v-.02h.04v-.02h.061v-.021h1.275v-.02h.02v-.529h-.02v-.02h-.04v-.02H5.957v.02zm11.935 1.117h-.02v.041h-.02v.04h-.02v.021h-.021v.02h-.02v.02h-.02v.021h-.02v.02h-.021v.02h-.04v.02h-.04v.021h-.082v.02h-.647v-.812h.627v.02h.08v.02h.061v.02h.04v.021h.021v.02h.02v.02h.02v.021h.021v.02h.02v.02h.02v.041h.02v.041h.021v.102h.02v.08h-.02v.102zm-1.477-1.117h-.06v.02h-.02v.02h-.04v.041h-.021v.02h-.02v.062h-.02v2.884h.02v.02h.02v.021h.607v-.02h.02v-.04h.02v-1.057h.809v-.02h.121v-.02h.081v-.021h.061v-.02h.04v-.02h.04v-.021h.041v-.02h.041v-.02h.02v-.021h.04v-.02h.02v-.02h.021v-.021h.02v-.02h.02v-.02h.04v-.02h.021v-.042h.02v-.02h.02v-.02h.02v-.02h.021v-.041h.02v-.02h.02v-.041h.021v-.04h.02v-.041h.02v-.041h.02v-.06h.02v-.082h.021v-.122h.02v-.224h-.02v-.101h-.02v-.081h-.02v-.061h-.02v-.041h-.021v-.04h-.02v-.041h-.02v-.04h-.02v-.021h-.02v-.04h-.021v-.021h-.02v-.02h-.02v-.02h-.02v-.042h-.021v-.02h-.02v-.02h-.04v-.02h-.02v-.02h-.021v-.021h-.02v-.02h-.041v-.02h-.02v-.021h-.04v-.02h-.041v-.02h-.04v-.02h-.061v-.021h-.04v-.02h-.082v-.02h-.162v-.021h-1.274v.02zm2.286 0h-.04v.04h-.02v.488h.02v.02h.02v.02h.83v2.48h.02v.02h.02v.02h.607v-.02h.02v-.02h.02v-2.48h.85v-.02h.02v-.528h-.02v-.02h-.02v-.02h-2.327v.02z" fill="#8598A7"/></svg>