<svg width="21" height="21" viewBox="0 0 21 21" fill="none" xmlns="http://www.w3.org/2000/svg"><path d="M19.97 16.064v.04h.036a.038.038 0 00.02-.005.018.018 0 00.007-.015.017.017 0 00-.007-.015.034.034 0 00-.02-.005h-.036zm.036-.028c.019 0 .034.004.044.013.01.009.015.02.015.035a.04.04 0 01-.012.03.058.058 0 01-.035.016l.048.056h-.037l-.045-.056h-.014v.056h-.031v-.15h.067zm-.01.202a.123.123 0 00.113-.077.13.13 0 00-.026-.139.12.12 0 00-.086-.036.125.125 0 00-.049.01.125.125 0 00-.065.066.125.125 0 00-.01.05.125.125 0 00.124.126zm0-.288a.158.158 0 01.148.1.158.158 0 01-.034.177.172.172 0 01-.05.034.157.157 0 01-.126 0 .166.166 0 01-.052-.035.16.16 0 01-.034-.177.159.159 0 01.085-.086.157.157 0 01.064-.013zm-14.827-.58c0-.286.183-.521.482-.521.286 0 .48.225.48.521 0 .297-.194.522-.48.522-.299 0-.482-.235-.482-.522zm1.287 0v-.814H6.11v.198a.597.597 0 00-.502-.24c-.445 0-.795.359-.795.856 0 .498.35.856.795.856a.597.597 0 00.502-.239v.198h.346v-.815zm11.678 0c0-.286.184-.521.483-.521.286 0 .478.225.478.521 0 .297-.192.522-.478.522-.3 0-.483-.235-.483-.522zm1.288 0v-1.468h-.346v.852a.597.597 0 00-.502-.24c-.446 0-.796.359-.796.856 0 .498.35.856.796.856a.597.597 0 00.502-.239v.198h.346v-.815zm-8.676-.538c.222 0 .366.143.402.395h-.825c.037-.235.177-.395.423-.395zm.007-.317c-.466 0-.792.347-.792.855 0 .518.339.856.815.856.24 0 .458-.061.651-.228l-.169-.263a.748.748 0 01-.462.17c-.223 0-.426-.105-.476-.399h1.18c.004-.044.007-.088.007-.136-.003-.508-.31-.855-.754-.855zm4.172.855c0-.286.184-.521.483-.521.286 0 .479.225.479.521 0 .297-.193.522-.48.522-.298 0-.482-.235-.482-.522zm1.287 0v-.814h-.345v.198a.598.598 0 00-.502-.24c-.446 0-.795.359-.795.856 0 .498.349.856.795.856a.598.598 0 00.502-.239v.198h.345v-.815zm-3.238 0c0 .495.335.856.848.856a.82.82 0 00.571-.195l-.165-.286a.688.688 0 01-.417.147c-.276-.004-.478-.208-.478-.522 0-.313.202-.518.478-.521.15 0 .287.05.416.146l.166-.286a.82.82 0 00-.571-.194c-.512 0-.848.361-.848.855zm4.455-.855a.466.466 0 00-.419.239v-.198h-.342v1.629h.346v-.913c0-.27.113-.42.339-.42.07 0 .143.01.216.041l.107-.334a.718.718 0 00-.247-.044zm-9.264.17c-.166-.112-.395-.17-.648-.17-.403 0-.662.198-.662.521 0 .266.193.43.549.481l.163.024c.19.027.279.078.279.17 0 .126-.126.198-.362.198a.833.833 0 01-.53-.17l-.162.275c.19.143.429.212.688.212.46 0 .725-.222.725-.532 0-.286-.21-.436-.555-.487l-.163-.024c-.15-.02-.27-.051-.27-.16 0-.12.114-.191.303-.191a1 1 0 01.496.14l.15-.287zm4.46-.17c-.2 0-.33.095-.42.239v-.198h-.342v1.629h.346v-.913c0-.27.113-.42.339-.42.07 0 .143.01.216.041l.107-.334a.718.718 0 00-.247-.044zm-2.95.04H9.11v-.493h-.35v.494h-.322v.324h.322v.743c0 .378.144.603.552.603.15 0 .323-.048.433-.126l-.1-.304a.629.629 0 01-.306.092c-.173 0-.23-.109-.23-.272v-.736h.566v-.324zm-5.167 1.63v-1.023c0-.385-.24-.644-.626-.647a.61.61 0 00-.558.29.58.58 0 00-.526-.29.522.522 0 00-.465.242v-.201h-.346v1.629h.349v-.903c0-.283.153-.433.39-.433.229 0 .345.153.345.43v.906h.35v-.903c0-.283.159-.433.388-.433.236 0 .35.153.35.43v.906h.349zm15.674-5.417v-.238h-.06l-.07.164-.07-.164h-.061v.238h.043v-.18l.065.156h.045l.065-.155v.18h.043zm-.384 0v-.197h.078v-.04h-.198v.04h.077v.197h.043zm-6.496 1.024H8.064V2.145h5.238v9.647z" fill="#8598A7"/><path d="M8.399 6.968c0-1.957.894-3.7 2.286-4.824a5.87 5.87 0 00-3.7-1.312C3.68.832 1 3.58 1 6.968s2.68 6.135 5.986 6.135a5.87 5.87 0 003.7-1.312 6.181 6.181 0 01-2.287-4.823z" fill="#8598A7" stroke="#EDF3F8"/><path d="M20.365 6.968c0 3.388-2.68 6.135-5.986 6.135a5.871 5.871 0 01-3.7-1.312 6.18 6.18 0 002.287-4.823 6.18 6.18 0 00-2.287-4.824 5.871 5.871 0 013.7-1.312c3.306 0 5.986 2.747 5.986 6.136z" fill="#8598A7" stroke="#EDF3F8"/><path d="M1.986 17.502h.219v3.142h-.22v-3.142zm1.18 0h.898c.23 0 .443.042.635.126.196.08.365.191.508.332.143.14.254.306.333.498.082.192.123.397.123.615 0 .218-.041.424-.123.615-.079.192-.19.358-.333.498-.143.14-.312.253-.508.337-.192.08-.404.121-.635.121h-.898v-3.142zm.898 2.918c.202 0 .387-.035.556-.104.17-.068.316-.163.438-.282a1.3 1.3 0 00.285-.427 1.4 1.4 0 00.1-.534 1.37 1.37 0 00-.1-.53 1.307 1.307 0 00-.723-.714 1.464 1.464 0 00-.556-.103h-.679v2.694h.68zm5.827-.404a1.666 1.666 0 01-.722.57 1.339 1.339 0 01-.548.103 1.48 1.48 0 01-.604-.126 1.6 1.6 0 01-.495-.345 1.639 1.639 0 01-.456-1.145 1.655 1.655 0 01.456-1.145 1.6 1.6 0 01.495-.345 1.48 1.48 0 01.604-.126c.21 0 .393.036.548.108.154.069.284.145.39.229.12.098.223.21.31.336l-.153.135a1.49 1.49 0 00-.271-.292 1.537 1.537 0 00-.342-.197 1.148 1.148 0 00-.482-.095 1.293 1.293 0 00-.95.404 1.37 1.37 0 00-.385.988c0 .197.033.382.1.552.07.168.165.314.285.44.122.123.264.22.425.292.163.072.338.108.525.108s.35-.03.486-.09c.14-.06.257-.127.35-.202.109-.084.202-.181.281-.292l.153.135zm.592-2.514h.197v1.369a.83.83 0 01.17-.211.953.953 0 01.224-.148c.09-.045.2-.067.329-.067a.818.818 0 01.604.26.85.85 0 01.184.292c.044.11.066.233.066.368v1.28h-.197v-1.28a.774.774 0 00-.053-.292.655.655 0 00-.136-.229.578.578 0 00-.21-.144.641.641 0 00-.539.009.744.744 0 00-.232.162.834.834 0 00-.21.561v1.212h-.197v-3.142zm4.205 2.738a1.081 1.081 0 01-.473.382.887.887 0 01-.359.067.944.944 0 01-.394-.085 1.174 1.174 0 01-.329-.238 1.177 1.177 0 01-.307-.799 1.162 1.162 0 01.298-.803.973.973 0 01.71-.32c.132 0 .256.027.373.081.116.054.218.13.306.23.088.098.156.216.206.354.053.138.079.29.079.458v.09h-1.774c.012.116.04.226.088.327a.864.864 0 00.434.44c.096.042.2.063.31.063.114 0 .213-.02.298-.058a.986.986 0 00.214-.13.696.696 0 00.167-.194l.153.135zm-.087-.785c-.024-.249-.106-.445-.246-.588a.683.683 0 00-.52-.22.707.707 0 00-.303.067.94.94 0 00-.254.18.835.835 0 00-.254.561H14.6zm2.495.785a1.081 1.081 0 01-.473.382.887.887 0 01-.359.067.944.944 0 01-.394-.085 1.174 1.174 0 01-.329-.238 1.177 1.177 0 01-.307-.799 1.165 1.165 0 01.307-.795c.097-.101.206-.18.329-.238a.904.904 0 01.394-.09c.137 0 .257.024.36.072a1.081 1.081 0 01.473.377l-.154.135a.723.723 0 00-.166-.188.986.986 0 00-.215-.13.664.664 0 00-.298-.063.717.717 0 00-.315.071.905.905 0 00-.451.49.967.967 0 00-.066.359c0 .128.022.25.066.363.046.111.108.208.184.292a.948.948 0 00.267.193c.1.048.204.072.315.072.114 0 .213-.02.298-.058a.986.986 0 00.215-.13.696.696 0 00.166-.194l.153.135zm.568-2.738h.197v2.267l1.161-1.28h.263l-.789.876.898 1.28h-.24l-.793-1.132-.5.548v.583h-.197v-3.142z" fill="#8598A7"/></svg>