<svg width="24" height="24" viewBox="0 0 24 24" fill="none" xmlns="http://www.w3.org/2000/svg"><mask id="a" fill="#fff"><path fill-rule="evenodd" clip-rule="evenodd" d="M24 7a4 4 0 00-4-4H2.5A2.5 2.5 0 000 5.5c0 1.38 1.221 2.447 2.34 3.256A3.995 3.995 0 014 12a3.995 3.995 0 01-1.66 3.244C1.221 16.053 0 17.12 0 18.5A2.5 2.5 0 002.5 21H20a4 4 0 004-4V7z"/></mask><path d="M2.5 5H20V1H2.5v4zm-1.331 5.377c.507.366.831.957.831 1.623h4a5.995 5.995 0 00-2.488-4.865l-2.343 3.242zM2 12c0 .666-.324 1.257-.831 1.623l2.343 3.242A5.995 5.995 0 006 12H2zm18 7H2.5v4H20v-4zm2-12v10h4V7h-4zm-2 16a6 6 0 006-6h-4a2 2 0 01-2 2v4zM1.169 13.623c-.596.431-1.35 1.02-1.962 1.763-.62.752-1.207 1.8-1.207 3.114h4c0-.067.023-.242.294-.57.279-.338.695-.687 1.218-1.065l-2.343-3.242zM-2 5.5c0 1.314.587 2.362 1.207 3.114.612.743 1.366 1.332 1.962 1.763l2.343-3.242c-.523-.378-.94-.727-1.218-1.065C2.024 5.742 2 5.567 2 5.5h-4zM20 5a2 2 0 012 2h4a6 6 0 00-6-6v4zM-2 18.5A4.5 4.5 0 002.5 23v-4a.5.5 0 01-.5-.5h-4zM2.5 1A4.5 4.5 0 00-2 5.5h4a.5.5 0 01.5-.5V1z" fill="#28D" mask="url(#a)"/><circle cx="11.141" cy="9.128" r="1.75" stroke="#28D" stroke-width="1.5"/><circle cx="16.705" cy="14.757" r="1.75" stroke="#28D" stroke-width="1.5"/><path d="M11 15l6-6" stroke="#28D" stroke-width="1.5" stroke-linecap="round" stroke-linejoin="round"/></svg>