<svg width="25" height="20" viewBox="0 0 25 20" fill="none" xmlns="http://www.w3.org/2000/svg"><path d="M11.102 7.389H9.906l.748-4.63h1.197l-.749 4.63zm4.339-4.516a2.95 2.95 0 00-1.073-.197c-1.182 0-2.014.63-2.02 1.531-.01.665.596 1.034 1.05 1.256.462.227.62.375.62.576-.005.31-.374.453-.719.453-.478 0-.734-.073-1.123-.246l-.158-.074-.167 1.04c.28.127.798.24 1.335.246 1.256 0 2.073-.62 2.083-1.581.005-.527-.315-.93-1.005-1.26-.418-.213-.675-.355-.675-.572.005-.197.217-.399.69-.399.389-.01.675.084.891.177l.108.05.163-1zm1.591 2.876l.478-1.295c-.005.01.098-.271.157-.443l.084.398s.226 1.108.276 1.34h-.995zm1.477-2.99h-.925c-.286 0-.503.084-.626.385L15.18 7.389h1.256l.251-.695h1.537l.143.695h1.108l-.966-4.63zm-9.603.001L7.734 5.916l-.128-.64c-.217-.739-.896-1.541-1.655-1.94l1.074 4.048H8.29l1.882-4.624H8.906z" fill="#8598A7"/><path d="M6.646 2.76H4.72l-.02.093c1.502.384 2.497 1.31 2.906 2.423L7.187 3.15c-.069-.296-.28-.38-.541-.39z" fill="#8598A7"/><path fill-rule="evenodd" clip-rule="evenodd" d="M22.259.491H1.917c-.794 0-1.438.66-1.438 1.474v15.592c0 .813.644 1.473 1.438 1.473h20.342c.794 0 1.437-.66 1.437-1.473V1.965c0-.814-.643-1.474-1.437-1.474zM1.917 0C.858 0 0 .88 0 1.965v15.592c0 1.085.858 1.964 1.917 1.964h20.342c1.058 0 1.916-.88 1.916-1.964V1.965C24.175.88 23.317 0 22.26 0H1.917z" fill="#8598A7"/><path d="M0 9.76h24.175v7.797c0 1.085-.858 1.964-1.916 1.964H1.917C.858 19.521 0 18.641 0 17.557V9.76z" fill="#8598A7"/><path fill-rule="evenodd" clip-rule="evenodd" d="M23.696 10.252H.48v7.305c0 .813.644 1.473 1.438 1.473H22.26c.794 0 1.437-.66 1.437-1.473v-7.305zM0 9.76v7.796c0 1.085.858 1.964 1.917 1.964h20.342c1.058 0 1.916-.88 1.916-1.964V9.76H0z" fill="#8598A7"/><path d="M6.573 15.02a.627.627 0 00.474.222c.115 0 .199-.023.25-.068a.211.211 0 00.08-.168.158.158 0 00-.074-.139.803.803 0 00-.187-.094 10.7 10.7 0 00-.241-.085 1.144 1.144 0 01-.242-.116.655.655 0 01-.187-.185.531.531 0 01-.075-.295.556.556 0 01.193-.424.693.693 0 01.23-.13.906.906 0 01.31-.05.9.9 0 01.294.044.87.87 0 01.382.236l-.287.295a.621.621 0 00-.1-.089.61.61 0 00-.119-.059.39.39 0 00-.155-.03c-.11 0-.187.02-.233.06a.186.186 0 00-.069.147c0 .06.025.106.075.142.05.033.112.063.187.091l.241.086c.087.029.167.068.242.117a.61.61 0 01.187.186c.05.075.074.172.074.292a.582.582 0 01-.204.445.771.771 0 01-.238.138.949.949 0 01-.32.05 1.059 1.059 0 01-.583-.162.798.798 0 01-.193-.162l.288-.295zm1.595-1.488h1.496v.413H8.6v.398h.833v.398H8.6v.441h1.092v.413H8.168v-2.063zm3.682 1.695c-.06.076-.131.145-.215.206a1.355 1.355 0 01-.27.142 1.005 1.005 0 01-.377.064 1.099 1.099 0 01-.78-.315 1.064 1.064 0 01-.313-.76c0-.148.028-.286.083-.416a1.088 1.088 0 011.01-.66c.14 0 .262.022.368.065.107.043.196.09.267.141.083.061.153.13.213.207l-.288.294a.792.792 0 00-.322-.247.571.571 0 00-.238-.047.609.609 0 00-.253.053.63.63 0 00-.207.141.68.68 0 00-.138.21.684.684 0 00-.05.259.679.679 0 00.188.471.64.64 0 00.46.191.64.64 0 00.247-.043.93.93 0 00.181-.104.706.706 0 00.147-.147l.287.295zm.302-1.695h.432v1.209a.6.6 0 00.031.2.423.423 0 00.233.253.496.496 0 00.36 0 .44.44 0 00.233-.253.548.548 0 00.034-.2v-1.209h.431v1.209a.974.974 0 01-.066.365.818.818 0 01-.178.283.825.825 0 01-.279.186.94.94 0 01-.354.064.947.947 0 01-.356-.064.831.831 0 01-.457-.47 1.013 1.013 0 01-.064-.364v-1.209zm2.258 0h.892a.8.8 0 01.29.05.609.609 0 01.365.363.77.77 0 01.05.28.7.7 0 01-.173.48.54.54 0 01-.173.124l.417.766h-.474l-.36-.678h-.402v.678h-.432v-2.063zm.877.973a.26.26 0 00.196-.077.279.279 0 00.077-.203.269.269 0 00-.273-.28h-.445v.56h.445zm1.151-.973h1.495v.413h-1.064v.398h.834v.398h-.834v.441h1.093v.413h-1.524v-2.063z" fill="#EDF3F8"/></svg>