<svg width="28" height="10" viewBox="0 0 28 10" fill="none" xmlns="http://www.w3.org/2000/svg"><g clip-path="url(#clip0_801:22141)" fill="#8598A7"><path d="M12.133 9.13H9.865L11.283.419h2.269l-1.42 8.713zM20.356.631a5.624 5.624 0 00-2.035-.37c-2.24 0-3.817 1.186-3.827 2.882-.018 1.251 1.13 1.946 1.988 2.363.878.427 1.176.705 1.176 1.085-.009.584-.709.853-1.362.853-.906 0-1.39-.139-2.128-.464l-.299-.139-.317 1.956c.532.24 1.512.454 2.53.463 2.38 0 3.929-1.167 3.947-2.975.01-.992-.597-1.752-1.904-2.373-.793-.398-1.279-.667-1.279-1.075.01-.37.411-.75 1.306-.75a3.876 3.876 0 011.69.333l.205.093.309-1.882zm3.014 5.413c.187-.5.906-2.437.906-2.437-.01.018.187-.51.299-.835l.158.751s.43 2.086.523 2.521H23.37zm2.8-5.626h-1.754c-.541 0-.952.158-1.186.723l-3.369 7.99h2.38l.476-1.307h2.913c.065.305.27 1.306.27 1.306H28L26.17.418zm-18.2 0L5.75 6.36l-.243-1.205c-.411-1.39-1.7-2.9-3.136-3.651L4.405 9.12h2.399L10.369.418H7.971z"/><path d="M3.687.418H.037L0 .594c2.847.723 4.732 2.466 5.507 4.56l-.794-4.003C4.583.594 4.181.437 3.687.418z"/></g><defs><clipPath id="clip0_801:22141"><path fill="#fff" transform="translate(0 .26)" d="M0 0h28v9H0z"/></clipPath></defs></svg>