<svg width="24" height="24" viewBox="0 0 24 24" fill="none" xmlns="http://www.w3.org/2000/svg"><path d="M8.402 23.999V24H15l-2-2H8.457c-.715-.02-1.804-.612-2.821-2.517C4.66 17.659 4 15.02 4 12c0-3.019.66-5.658 1.636-7.484 1.017-1.904 2.106-2.496 2.82-2.515L8.479 2H13l2-2H8.402v.001C4.858.098 2 5.433 2 12s2.858 11.902 6.402 11.999z" fill="#4E697E"/><path d="M21 12c0 3.168-.751 5.988-1.914 7.981C17.909 22 16.43 23 15 23c-1.43 0-2.909-1-4.086-3.019C9.751 17.988 9 15.168 9 12s.751-5.988 1.914-7.981C12.091 2 13.57 1 15 1c1.43 0 2.909 1 4.086 3.019C20.249 6.012 21 8.832 21 12z" stroke="#4E697E" stroke-width="2"/><path fill="#4E697E" d="M4.129 3h6.54v2h-6.54zm-1 4h6v2h-6zm0 4h6v2h-6zm1 4h6v2h-6zm1 4h6v2h-6z"/></svg>