<svg width="27" height="18" viewBox="0 0 27 18" fill="none" xmlns="http://www.w3.org/2000/svg"><path d="M25.873 11.613v-.306h-.078l-.09.21-.09-.21h-.078v.306h.056v-.231l.084.2h.057l.084-.2v.231h.055zm-.494 0v-.254h.1v-.052h-.255v.052h.1v.254h.055zm-8.366 3.359H10.27V2.552h6.744v12.42z" fill="#8598A7"/><path d="M10.702 8.76a7.958 7.958 0 012.944-6.21A7.557 7.557 0 008.883.861c-4.257 0-7.707 3.537-7.707 7.9s3.45 7.9 7.707 7.9a7.557 7.557 0 004.763-1.69 7.958 7.958 0 01-2.944-6.21z" fill="#8598A7" stroke="#EDF3F8"/><path d="M26.11 8.76c0 4.364-3.451 7.9-7.708 7.9a7.56 7.56 0 01-4.763-1.689 7.957 7.957 0 002.944-6.21 7.957 7.957 0 00-2.944-6.21A7.56 7.56 0 0118.402.86c4.257 0 7.707 3.537 7.707 7.9z" fill="#8598A7" stroke="#EDF3F8"/></svg>