<svg width="32" height="14" viewBox="0 0 32 14" fill="none" xmlns="http://www.w3.org/2000/svg"><g clip-path="url(#clip0_801:22191)"><path d="M6.036 1.937c-.364.439-.945.785-1.526.736-.073-.594.212-1.225.545-1.615.363-.451.999-.773 1.514-.797.06.618-.176 1.224-.533 1.676zm.526.853c-.841-.05-1.562.49-1.961.49-.406 0-1.017-.464-1.683-.452-.866.013-1.672.514-2.114 1.311-.908 1.596-.236 3.958.642 5.257.43.644.945 1.348 1.623 1.324.642-.025.896-.427 1.671-.427.781 0 1.005.427 1.683.414.703-.012 1.145-.643 1.574-1.286.49-.73.69-1.441.703-1.478-.012-.012-1.356-.538-1.369-2.121-.012-1.324 1.06-1.955 1.108-1.992-.605-.915-1.55-1.014-1.877-1.039zM11.424.997v9.641h1.466V7.342h2.028c1.853 0 3.154-1.299 3.154-3.179S16.795.997 14.966.997h-3.542zm1.466 1.261h1.689c1.271 0 1.998.693 1.998 1.911 0 1.219-.727 1.918-2.004 1.918H12.89v-3.83zm7.859 8.455c.92 0 1.774-.477 2.161-1.231h.03v1.156h1.357V5.84c0-1.391-1.09-2.288-2.767-2.288-1.556 0-2.707.909-2.75 2.158h1.32c.11-.593.649-.983 1.387-.983.896 0 1.399.427 1.399 1.212v.532l-1.829.111c-1.701.105-2.621.817-2.621 2.054 0 1.249.95 2.078 2.313 2.078zm.393-1.145c-.78 0-1.277-.383-1.277-.97 0-.607.478-.96 1.392-1.015l1.629-.105v.544c0 .903-.75 1.546-1.744 1.546zm4.965 3.693c1.429 0 2.101-.557 2.688-2.245l2.573-7.372H29.88L28.153 9.34h-.03l-1.725-5.696h-1.532l2.482 7.02-.133.426c-.224.723-.587 1.002-1.235 1.002-.115 0-.34-.013-.43-.025v1.156c.085.025.448.038.557.038z" fill="#8598A7"/></g><defs><clipPath id="clip0_801:22191"><path fill="#fff" transform="translate(.365 .26)" d="M0 0h31v13H0z"/></clipPath></defs></svg>